<?xml version="1.0" encoding="utf-8"?>
<!-- Generator: Adobe Illustrator 21.1.0, SVG Export Plug-In . SVG Version: 6.00 Build 0)  -->
<svg version="1.1" id="Capa_1" xmlns="http://www.w3.org/2000/svg" xmlns:xlink="http://www.w3.org/1999/xlink" x="0px" y="0px"
	 viewBox="0 0 71 70" style="enable-background:new 0 0 71 70;" xml:space="preserve">
<style type="text/css">
	.st0{fill:#C39C63;}
</style>
<title>Firma</title>
<path class="st0" d="M41.8,51.2c1.7-0.4,3.2-0.6,4.7-1c5.8-1.5,9.3-5.2,10.4-11.1c0.8-3.2,0.7-6.6-0.3-9.8c-0.5-1.4-1.2-2.7-2.2-3.8
	c-0.4-0.4-0.5-1-0.3-1.5c0.7-2.4,0.6-4.9-0.2-7.3c-0.1-0.7-0.7-1.1-1.4-1c-0.1,0-0.1,0-0.2,0c-2.4,0.4-4.7,1.3-6.7,2.7
	c-0.9,0.7-2.1,0.8-3.3,0.5c-4.7-1.1-9.6-1.1-14.3,0.1c-0.8,0.2-1.8,0.1-2.5-0.4c-1.9-1.3-4-2.3-6.2-2.8c-1.9-0.4-2.1-0.3-2.6,1.5
	c-0.6,2.1-0.6,4.3-0.1,6.5c0.2,0.6,0.1,1.3-0.4,1.8c-4.8,5.4-3.1,17,1.5,21.1c2.7,2.3,6,3.7,9.5,4.2l1.8,0.3c-1.1,1.1-1.8,2.6-2,4.1
	c-0.1,0.4-0.4,0.7-0.8,0.8c-3.3,1.6-7.3,0.4-9.2-2.8c-0.5-0.8-1.1-1.6-1.8-2.2c-0.8-0.8-1.8-1.3-2.9-1.6c-0.7-0.2-1.7-0.4-2.1,0.3
	s0.6,1.2,1.2,1.6c1.6,1.1,2.8,2.6,3.4,4.4c1.8,5.1,6.2,6.3,10.8,5.5c1.1-0.2,1.3,0,1.3,1.1c-0.1,1.4,0,2.7,0,4.1c0,2.2-1,2.9-3,2.1
	C12.8,64.2,5.3,56.4,2.2,44.9C-2.8,27,7,6.4,28.9,1.8c11-2.3,21.2,0.6,29.5,8.1c8,6.9,12.3,17.2,11.6,27.7
	c-0.7,13.9-9.7,26.1-22.8,30.8c-2.3,0.9-3.2,0.3-3.2-2.2c0-2.7,0-5.4,0-8S43.7,53.3,41.8,51.2z"/>
</svg>
