<?xml version="1.0" encoding="utf-8"?>
<!-- Generator: Adobe Illustrator 21.1.0, SVG Export Plug-In . SVG Version: 6.00 Build 0)  -->
<svg version="1.1" id="Capa_1" xmlns="http://www.w3.org/2000/svg" xmlns:xlink="http://www.w3.org/1999/xlink" x="0px" y="0px"
	 viewBox="0 0 68 69" style="enable-background:new 0 0 68 69;" xml:space="preserve">
<style type="text/css">
	.st0{fill:#C39C63;}
</style>
<title>Firma</title>
<path class="st0" d="M34.1,1.1c18.5,0.1,33.4,15.1,33.3,33.6S52.3,68,33.9,67.9S0.5,52.8,0.6,34.4c0-0.2,0-0.3,0-0.5
	C0.9,15.6,15.9,1,34.1,1.1z M34.1,55.9c1.9,0,3.8,0,5.6,0c2.1,0.1,4.2,0.1,6.2-0.2c5.7-1,9.4-5.5,9.5-11.7c0.1-6.6,0.1-13.1,0-19.7
	c-0.1-6.3-5.2-11.3-11.5-11.3c0,0,0,0,0,0c-6.7,0-13.4,0-20,0c-6,0.1-11,4.9-11.2,10.9c-0.1,6.8-0.1,13.5,0,20.3
	c0.1,6.9,5,11.6,11.9,11.6H34.1z"/>
<path class="st0" d="M52,34.4c0,3,0.1,6,0,9c-0.2,5.1-4.4,9.2-9.6,9.1c-5.6,0-11.1,0-16.7,0c-5.6,0-9.7-4.2-9.7-10
	c-0.1-5.3-0.1-10.7,0-16c0-6.2,4-10.1,10.2-10.1c5.3,0,10.6,0,16,0c4.7-0.1,8.8,3.1,9.6,7.7c0.2,1.6,0.2,3.2,0.1,4.8
	C52,30.8,52,32.6,52,34.4L52,34.4z M22.2,34.4c-0.1,6.6,5.1,12,11.7,12.1c6.6,0.1,12-5.1,12.1-11.7c0.1-6.6-5.1-12-11.7-12.1
	c0,0-0.1,0-0.1,0c-6.5-0.1-11.8,5.1-11.9,11.6C22.2,34.4,22.2,34.4,22.2,34.4z M49.6,23.4c0.1-1.8-1.3-3.3-3.1-3.4
	c-0.1,0-0.1,0-0.2,0c-1.9,0-3.4,1.5-3.4,3.4c0,0,0,0,0,0c0.1,1.8,1.6,3.3,3.4,3.3C48.1,26.7,49.6,25.2,49.6,23.4
	C49.6,23.4,49.6,23.4,49.6,23.4L49.6,23.4z"/>
<path class="st0" d="M25.5,34.6c-0.1-4.7,3.7-8.6,8.4-8.6c4.7-0.1,8.6,3.7,8.6,8.4c0.1,4.7-3.7,8.6-8.4,8.6c-0.1,0-0.2,0-0.2,0
	C29.3,43,25.5,39.3,25.5,34.6z"/>
</svg>
