<?xml version="1.0" encoding="utf-8"?>
<!-- Generator: Adobe Illustrator 21.1.0, SVG Export Plug-In . SVG Version: 6.00 Build 0)  -->
<svg version="1.1" id="Capa_1" xmlns="http://www.w3.org/2000/svg" xmlns:xlink="http://www.w3.org/1999/xlink" x="0px" y="0px"
	 viewBox="0 0 69 70" style="enable-background:new 0 0 69 70;" xml:space="preserve">
<style type="text/css">
	.st0{fill:#C39C63;}
</style>
<title>Firma</title>
<path class="st0" d="M37.2,70h-5.8c-0.1-0.3-0.5-0.2-0.7-0.3c-3.3-0.4-6.6-1.2-9.7-2.5C6,60.9-2.3,45.3,0.7,28.9
	C4.2,9.5,22.9-1.9,40.8,1.4c19,3.5,31.5,22,27.6,40.7c-3,14.1-11.9,22.9-25.7,26.9C40.9,69.6,39,69.6,37.2,70z M37.7,31
	c-0.2-0.7-0.2-1.5-0.1-2.2c0.1-0.7-0.2-1-0.9-1c-1.7,0-3.4,0-5.2,0c-2.4,0-2.4,0-2.4,2.4c0,7.2,0,14.5-0.1,21.7c0,1,0.3,1.3,1.3,1.3
	c2-0.1,4.1-0.1,6.1,0c1,0,1.2-0.4,1.2-1.3c-0.2-3.8,0.1-7.7,0-11.5c0-0.8,0-1.5,0-2.3c0.2-2.3,2.1-4.1,4.4-4.2
	c2-0.2,3.6,1.1,4.1,3.4c0.2,0.8,0.3,1.7,0.2,2.5c0,4.1,0,8.2,0,12.2c0,0.7,0.1,1.2,0.9,1.2c2.2,0,4.5,0,6.7,0c0.7,0,0.8-0.3,0.8-0.8
	c-0.1-5.3,0.2-10.6-0.2-16c-0.3-4.5-3-7.9-6.9-8.8S40.4,27.4,37.7,31z M16.1,40.4c0,3.9,0,7.8,0,11.6c0,0.8,0.2,1.1,1.1,1.1
	c2.2,0,4.3,0,6.5,0c0.8,0,0.9-0.3,0.9-1c0-7.8,0-15.6,0-23.4c0-0.8-0.3-1-1.1-1c-2.1,0-4.2,0-6.4,0c-0.9,0-1.1,0.3-1.1,1.1
	C16.1,32.7,16.1,36.5,16.1,40.4z M20.2,24.4c2.8,0,4.8-1.8,4.9-4.4c0.1-2.4-1.9-4.4-4.3-4.5c-0.1,0-0.3,0-0.4,0
	c-2.8,0-4.7,1.8-4.8,4.3c-0.1,2.4,1.8,4.5,4.2,4.6C19.9,24.4,20.1,24.4,20.2,24.4L20.2,24.4z"/>
</svg>
